<svg id="Layer_1" enable-background="new 0 0 32 32" height="512" viewBox="0 0 32 32" width="512" xmlns="http://www.w3.org/2000/svg"><g><path d="m26 1.5h-20c-2.481 0-4.5 2.019-4.5 4.5v20c0 2.481 2.019 4.5 4.5 4.5h20c2.481 0 4.5-2.019 4.5-4.5v-20c0-2.481-2.019-4.5-4.5-4.5z" fill="#34495e"/><path d="m21.354 5.646c-.195-.195-.512-.195-.707 0l-10 10c-.195.195-.195.512 0 .707l10 10c.097.098.225.147.353.147s.256-.049.354-.146c.195-.195.195-.512 0-.707l-9.647-9.647 9.646-9.646c.196-.196.196-.512.001-.708z" fill="#ecf0f1"/></g></svg>